#!OML:ASF F:\VICON\USERDATA\INSTALL\rory3\rory3.ASF
:FULLY-SPECIFIED
:DEGREES
588
root 9.57722 17.8208 -10.3576 -4.73446 136.468 -5.25351
lowerback 9.37896 1.95176 -1.45081
upperback 0.871358 2.47209 -0.637671
thorax -4.38289 1.26811 -0.170454
lowerneck -13.9028 -3.65081 -10.5525
upperneck 41.8954 2.014 0.222926
head 18.041 0.399166 2.77727
rclavicle -2.3879e-014 6.36111e-015
rhumerus -37.7031 -12.1521 -75.8546
rradius 31.7091
rwrist 4.1887
rhand -16.8209 6.23392
rfingers 7.12502
rthumb 9.40811 -23.5361
lclavicle -2.3879e-014 6.36111e-015
lhumerus -34.597 14.036 76.376
lradius 27.1572
lwrist -8.21273
lhand -20.4663 27.1075
lfingers 7.12502
lthumb 5.8896 57.0056
rfemur -9.35903 -15.6978 18.5707
rtibia 46.7364
rfoot -16.371 -17.3021
rtoes 10.0793
lfemur -10.0511 1.72398 -27.2834
ltibia 22.4663
lfoot -9.74414 -5.57078
ltoes -14.6022
589
root 9.59262 17.8254 -10.37 -4.7101 137.714 -5.15025
lowerback 9.4335 1.83621 -1.38451
upperback 0.89261 2.32516 -0.672434
thorax -4.38557 1.19482 -0.22588
lowerneck -13.8746 -3.61606 -10.696
upperneck 42.0455 2.13785 0.392775
head 18.1126 0.466911 2.91796
rclavicle 1.0312e-014 1.19271e-014
rhumerus -37.5347 -11.9722 -76.2212
rradius 32.0252
rwrist 4.28042
rhand -16.7161 6.12302
rfingers 7.12502
rthumb 9.50923 -23.6424
lclavicle 1.0312e-014 1.19271e-014
lhumerus -34.6279 14.0535 76.3033
lradius 27.1024
lwrist -8.19068
lhand -20.6659 27.2703
lfingers 7.12502
lthumb 5.69692 57.1737
rfemur -9.63811 -15.5924 18.3669
rtibia 47.7178
rfoot -16.0949 -16.3105
rtoes 12.0865
lfemur -9.81807 1.09124 -27.3361
ltibia 22.262
lfoot -9.73395 -6.0984
ltoes -14.4845
590
root 9.61368 17.8305 -10.3811 -4.48275 138.804 -4.90579
lowerback 9.38113 1.80957 -1.26544
upperback 0.863254 2.30185 -0.67299
thorax -4.38203 1.18081 -0.288901
lowerneck -13.7293 -3.59872 -10.6633
upperneck 42.0648 2.20215 0.396656
head 18.0808 0.521016 2.93098
rclavicle -2.98177e-015 0
rhumerus -37.5001 -11.7936 -76.558
rradius 32.4071
rwrist 4.08144
rhand -16.7273 6.53823
rfingers 7.12502
rthumb 9.49845 -23.2277
lclavicle -2.98177e-015 0
lhumerus -34.7353 14.0967 76.2116
lradius 27.0547
lwrist -8.5471
lhand -20.5582 27.6052
lfingers 7.12502
lthumb 5.80087 57.5058
rfemur -10.0302 -15.3469 18.3536
rtibia 48.584
rfoot -15.8782 -15.2705
rtoes 12.5621
lfemur -9.6897 0.656098 -27.2296
ltibia 22.0385
lfoot -9.72886 -6.66373
ltoes -13.0382
591
root 9.63803 17.8352 -10.3884 -4.41725 139.798 -4.79839
lowerback 9.46941 1.85548 -1.37375
upperback 0.827889 2.35109 -0.631999
thorax -4.47463 1.20753 -0.196192
lowerneck -13.703 -3.61476 -10.3761
upperneck 42.072 2.29101 0.0499011
head 18.0826 0.575121 2.73992
rclavicle -5.31997e-014 4.77083e-015
rhumerus -37.5325 -11.666 -76.7415
rradius 32.8812
rwrist 3.93396
rhand -16.7708 6.66549
rfingers 7.12502
rthumb 9.45654 -23.1023
lclavicle -5.31997e-014 4.77083e-015
lhumerus -34.8156 14.2594 76.1701
lradius 26.927
lwrist -9.04209
lhand -16.7166 29.7423
lfingers 7.12502
lthumb 9.50882 59.5077
rfemur -10.3085 -15.012 18.196
rtibia 49.337
rfoot -15.8104 -13.9834
rtoes 12.6086
lfemur -9.48596 0.23516 -27.197
ltibia 21.8153
lfoot -9.70703 -7.18946
ltoes -9.8049
592
root 9.66354 17.8372 -10.3948 -4.62186 140.871 -4.90743
lowerback 9.64943 1.89827 -1.61953
upperback 0.845948 2.38154 -0.63252
thorax -4.56657 1.22865 -0.0693588
lowerneck -13.6929 -3.6633 -10.2193
upperneck 42.117 2.29789 -0.107737
head 18.1123 0.599721 2.64745
rclavicle -3.844e-014 3.97569e-015
rhumerus -37.5136 -11.8475 -76.7753
rradius 33.2314
rwrist 4.05773
rhand -16.7771 6.76052
rfingers 7.12502
rthumb 9.45046 -23.0076
lclavicle -3.844e-014 3.97569e-015
lhumerus -34.8658 14.391 76.1471
lradius 26.8808
lwrist -9.20976
lhand -16.1023 30.1093
lfingers 7.12502
lthumb 10.1014 59.8468
rfemur -10.4077 -14.6546 17.7963
rtibia 49.986
rfoot -15.8582 -12.6529
rtoes 12.4143
lfemur -9.13543 -0.241449 -27.3464
ltibia 21.5871
lfoot -9.63063 -7.75338
ltoes -7.54545
593
root 9.68855 17.839 -10.4015 -4.75043 141.897 -4.99379
lowerback 9.6586 1.91227 -1.75535
upperback 0.937884 2.38926 -0.69863
thorax -4.47845 1.23626 -0.0612264
lowerneck -13.5103 -3.63697 -10.2206
upperneck 42.0259 2.29293 0.0160158
head 18.0035 0.634745 2.70319
rclavicle -4.87519e-014 9.54166e-015
rhumerus -37.2273 -11.9915 -77.0607
rradius 33.5684
rwrist 4.05274
rhand -16.8302 6.36825
rfingers 7.12502
rthumb 9.39919 -23.4022
lclavicle -4.87519e-014 9.54166e-015
lhumerus -34.7898 14.385 76.1016
lradius 27.2268
lwrist -8.18244
lhand -18.2335 29.6868
lfingers 7.12502
lthumb 8.04496 59.5137
rfemur -10.5821 -14.2003 17.4703
rtibia 50.522
rfoot -15.9129 -11.4968
rtoes 10.9797
lfemur -8.83157 -0.595296 -27.4871
ltibia 21.3105
lfoot -9.62782 -8.30377
ltoes -7.39561
594
root 9.717 17.84 -10.409 -4.7838 142.819 -5.10193
lowerback 9.53787 1.94669 -1.96272
upperback 1.01543 2.4185 -0.781192
thorax -4.3355 1.25507 -0.0284499
lowerneck -13.0985 -3.5453 -10.2337
upperneck 41.8442 2.3704 0.124483
head 17.7755 0.709329 2.76193
rclavicle 1.09506e-013 -6.95746e-015
rhumerus -36.9109 -11.9618 -77.4819
rradius 34.0129
rwrist 3.96122
rhand -17.0581 5.37104
rfingers 7.12502
rthumb 9.17932 -24.4092
lclavicle 1.09506e-013 -6.95746e-015
lhumerus -34.7176 14.213 76.1086
lradius 27.1739
lwrist -8.39264
lhand -18.402 29.9948
lfingers 7.12502
lthumb 7.88238 59.8279
rfemur -10.8943 -13.6762 17.2083
rtibia 50.9368
rfoot -15.5606 -10.7464
rtoes 6.68054
lfemur -8.64244 -0.83304 -27.6337
ltibia 21.0335
lfoot -9.67521 -8.81308
ltoes -6.40903
595
root 9.74796 17.8375 -10.4138 -4.87469 143.713 -5.3343
lowerback 9.49183 1.99923 -2.38606
upperback 1.07289 2.44957 -0.822024
thorax -4.26618 1.27883 0.165055
lowerneck -13.5184 -3.62917 -10.2601
upperneck 42.0319 2.29792 0.259018
head 18.0003 0.687809 2.83331
rclavicle -6.21202e-014 5.76476e-015
rhumerus -36.6381 -11.9646 -77.715
rradius 34.3655
rwrist 3.88528
rhand -16.9849 5.1405
rfingers 7.12502
rthumb 9.24994 -24.6366
lclavicle -6.21202e-014 5.76476e-015
lhumerus -34.6662 14.1027 76.1802
lradius 26.9113
lwrist -9.38993
lhand -18.1878 29.8256
lfingers 7.12502
lthumb 8.08908 59.6508
rfemur -11.2545 -13.1729 16.8571
rtibia 51.2333
rfoot -14.9671 -10.2298
rtoes 2.52863
lfemur -8.51814 -1.10255 -27.873
ltibia 20.839
lfoot -9.69486 -9.35142
ltoes -4.22331
596
root 9.77646 17.8366 -10.4212 -5.06413 144.677 -5.56717
lowerback 9.55709 2.02757 -2.74552
upperback 1.20446 2.45775 -0.856908
thorax -4.1788 1.29086 0.329516
lowerneck -13.9983 -3.72024 -10.4141
upperneck 42.1578 2.21336 0.450239
head 18.2078 0.643587 2.94888
rclavicle -3.46134e-014 2.16675e-014
rhumerus -36.2967 -11.831 -77.9472
rradius 34.7901
rwrist 3.51827
rhand -16.7526 5.31665
rfingers 7.12502
rthumb 9.47403 -24.4504
lclavicle -3.46134e-014 2.16675e-014
lhumerus -34.5671 14.2326 76.2226
lradius 27.0644
lwrist -9.15006
lhand -17.6563 29.8417
lfingers 7.12502
lthumb 8.60199 59.6465
rfemur -11.4084 -12.6606 16.3997
rtibia 51.4451
rfoot -14.9683 -9.55564
rtoes 2.37774
lfemur -8.29341 -1.27601 -28.1367
ltibia 20.7207
lfoot -9.44978 -10.1102
ltoes -1.70186
597
root 9.80195 17.8442 -10.4288 -5.0208 145.719 -5.51112
lowerback 9.58517 2.00854 -2.80346
upperback 1.26752 2.43137 -0.84274
thorax -4.13086 1.27966 0.380571
lowerneck -14.0488 -3.76878 -10.6018
upperneck 42.0397 2.09602 0.671556
head 18.1538 0.600951 3.0609
rclavicle -2.80783e-014 -2.5842e-015
rhumerus -36.0567 -11.7077 -78.1502
rradius 35.1489
rwrist 3.1438
rhand -16.7516 5.4772
rfingers 7.12502
rthumb 9.47504 -24.2898
lclavicle -2.80783e-014 -2.5842e-015
lhumerus -34.5422 14.3597 76.2813
lradius 27.3562
lwrist -8.12128
lhand -17.5802 29.8319
lfingers 7.12502
lthumb 8.67543 59.6337
rfemur -11.5389 -12.0264 16.2068
rtibia 51.5508
rfoot -15.2623 -9.00158
rtoes 3.73952
lfemur -8.18608 -1.5557 -28.1235
ltibia 20.6792
lfoot -8.97857 -10.9691
ltoes -2.08383
598
root 9.82632 17.8491 -10.4286 -4.74591 146.789 -5.09715
lowerback 9.66098 1.92519 -2.5569
upperback 1.2585 2.34543 -0.77463
thorax -4.17306 1.23368 0.321743
lowerneck -13.9507 -3.77374 -10.5982
upperneck 41.9557 2.07433 0.711726
head 18.0771 0.612736 3.07293
rclavicle -3.71479e-014 7.35503e-015
rhumerus -35.8511 -11.7814 -78.3232
rradius 35.24
rwrist 3.02201
rhand -16.888 6.59943
rfingers 7.12502
rthumb 9.34342 -23.1735
lclavicle -3.71479e-014 7.35503e-015
lhumerus -34.423 14.2429 76.3504
lradius 27.1958
lwrist -7.65759
lhand -17.6507 29.8547
lfingers 7.12502
lthumb 8.60747 59.6593
rfemur -11.7051 -11.3789 16.4164
rtibia 51.5406
rfoot -15.5858 -8.62343
rtoes 2.57853
lfemur -8.20002 -1.99734 -27.7443
ltibia 20.6865
lfoot -9.13572 -11.7993
ltoes -2.67284
599
root 9.85593 17.8519 -10.4328 -4.56682 147.776 -4.73195
lowerback 9.71591 1.86274 -2.38148
upperback 1.26029 2.28199 -0.698564
thorax -4.19646 1.19997 0.309055
lowerneck -13.8492 -3.75851 -10.5091
upperneck 41.9809 2.14651 0.648872
head 18.0614 0.666976 3.04632
rclavicle -1.10822e-014 5.96354e-015
rhumerus -35.703 -11.623 -78.5632
rradius 35.491
rwrist 2.66746
rhand -16.8715 7.22969
rfingers 7.12502
rthumb 9.35931 -22.5425
lclavicle -1.10822e-014 5.96354e-015
lhumerus -34.3901 14.044 76.419
lradius 27.0594
lwrist -7.54472
lhand -17.5942 29.9836
lfingers 7.12502
lthumb 8.66192 59.7859
rfemur -11.719 -10.7464 16.5324
rtibia 51.3978
rfoot -16.3194 -7.94847
rtoes 0.180816
lfemur -8.10678 -2.23727 -27.4334
ltibia 20.6997
lfoot -9.24512 -12.5119
ltoes -2.89052
600
root 9.8889 17.8629 -10.4444 -4.61924 148.679 -4.68891
lowerback 9.77593 1.86945 -2.48957
upperback 1.28193 2.28173 -0.662608
thorax -4.2129 1.20269 0.405299
lowerneck -13.7245 -3.76154 -10.5601
upperneck 41.8809 2.14903 0.677102
head 17.9685 0.68037 3.06594
rclavicle -3.69988e-014 -7.95139e-015
rhumerus -35.547 -11.1697 -78.915
rradius 35.9645
rwrist 1.96815
rhand -17.0953 6.57936
rfingers 7.12502
rthumb 9.14334 -23.2024
lclavicle -3.69988e-014 -7.95139e-015
lhumerus -34.5044 14.063 76.4352
lradius 27.0641
lwrist -7.85173
lhand -17.3757 29.807
lfingers 7.12502
lthumb 8.87286 59.6004
rfemur -11.615 -10.0597 16.2806
rtibia 51.1583
rfoot -16.9216 -7.22077
rtoes -0.53495
lfemur -7.88495 -2.42275 -27.44
ltibia 20.6903
lfoot -8.67718 -13.0641
ltoes -0.865542
601
root 9.91923 17.8712 -10.4449 -4.58273 149.67 -4.51261
lowerback 9.91095 1.83684 -2.48353
upperback 1.32592 2.241 -0.619654
thorax -4.24247 1.18415 0.448315
lowerneck -13.8213 -3.80494 -10.5872
upperneck 41.8106 2.06305 0.758694
head 17.9565 0.655791 3.09268
rclavicle 1.52816e-014 2.60408e-014
rhumerus -35.3117 -10.7177 -79.3364
rradius 36.457
rwrist 1.32584
rhand -17.4498 6.05126
rfingers 7.12502
rthumb 8.80134 -23.7452
lclavicle 1.52816e-014 2.60408e-014
lhumerus -34.4977 14.093 76.4368
lradius 27.0375
lwrist -8.37724
lhand -16.8192 29.7797
lfingers 7.12502
lthumb 9.40981 59.5496
rfemur -11.6083 -9.2251 16.2646
rtibia 50.8752
rfoot -17.0704 -7.04849
rtoes -0.915594
lfemur -7.73097 -2.7871 -27.2769
ltibia 20.6239
lfoot -8.16474 -13.6122
ltoes 2.07713
